<?xml version="1.0" encoding="UTF-8"?>
<svg width="110.49mm" height="22.775mm" version="1.1" viewBox="0 0 110.49 22.775" xmlns="http://www.w3.org/2000/svg" xmlns:cc="http://creativecommons.org/ns#" xmlns:dc="http://purl.org/dc/elements/1.1/" xmlns:rdf="http://www.w3.org/1999/02/22-rdf-syntax-ns#">
 <metadata>
  <rdf:RDF>
   <cc:Work rdf:about="">
    <dc:format>image/svg+xml</dc:format>
    <dc:type rdf:resource="http://purl.org/dc/dcmitype/StillImage"/>
   </cc:Work>
  </rdf:RDF>
 </metadata>
 <g transform="translate(-80.826 -55.892)">
  <path d="m146.55 78.616c0-0.05856-0.0704-0.08183-0.16934-0.05597-0.19311 0.0505-0.21799-0.02333-0.0635-0.18845 0.0868-0.09272 0.0715-0.10484-0.0847-0.06719-0.15923 0.03839-0.19049 0.01097-0.19049-0.16699 0-0.17897-0.0306-0.20524-0.19186-0.16476-0.17788 0.04464-0.19099 0.02215-0.17985-0.30856 7e-3 -0.1962 0.0834-0.49828 0.17069-0.67131 0.52055-1.032 0.82895-1.6942 1.0158-2.1812 0.11644-0.30343 0.28251-0.70409 0.36906-0.89036 0.0865-0.18627 0.2224-0.56727 0.30189-0.84667 0.0795-0.2794 0.25398-0.70597 0.38772-0.94792 0.13373-0.24196 0.24315-0.49983 0.24315-0.57306 0-0.07322 0.0916-0.31341 0.20346-0.53374 0.1119-0.22033 0.26013-0.53396 0.32939-0.69694 0.38597-0.9081 0.78359-1.7522 0.88051-1.8693 0.0609-0.07352 0.11064-0.16529 0.11064-0.20394 0-0.05861 0.41408-0.96379 0.68744-1.5027 0.041-0.08086 0.0746-0.1603 0.0746-0.17654 0-0.01624-0.38484-0.01727-0.85519-0.0023-0.77693 0.02473-0.86801 0.01141-0.99508-0.14552-0.0892-0.11014-0.25473-0.17876-0.45676-0.18935-0.23885-0.01252-0.31698-0.05309-0.31725-0.16477-3.5e-4 -0.1418-0.0879-0.18435-0.31789-0.15449-0.0582 0.0076-0.10606-0.03555-0.10636-0.0958-2.4e-4 -0.06025-0.0566-0.21699-0.12506-0.34832-0.1907-0.36562 4e-3 -0.57266 1.0062-1.0694 1.1198-0.55511 1.8142-0.70697 3.268-0.71473 1.263-0.0067 1.5742 0.0747 2.4196 0.63336 1.2323 0.81434 1.7832 1.4031 2.2835 2.4401 0.23956 0.4966 0.25318 0.65848 0.0876 1.0421-0.066 0.15292-0.16529 0.40046-0.22064 0.55008-0.0603 0.16309-0.1992 0.31566-0.34668 0.38094-0.13531 0.05989-0.26589 0.1715-0.29017 0.24802-0.0243 0.07652-0.14766 0.1772-0.27417 0.22373-0.91225 0.33558-1.0089 0.35716-1.2516 0.27956-0.13664-0.0437-0.42744-0.10335-0.64621-0.13257-0.31077-0.0415-0.38688-0.08151-0.34796-0.18292 0.0361-0.09422 4e-3 -0.12199-0.1184-0.10131-0.0925 0.01567-0.22681-0.02015-0.29845-0.07961-0.11047-0.09169-0.13855-0.07509-0.18482 0.1093-0.03 0.11957-0.0911 0.19482-0.13579 0.16721-0.0452-0.02795-0.0589 8e-3 -0.0308 0.0812 0.0278 0.07245 6e-3 0.1314-0.0483 0.1314s-0.0759 0.03698-0.0479 0.08218c0.0505 0.08174-0.17346 0.59515-0.25964 0.59515-0.0248 0-0.0165-0.04762 0.0184-0.10583 0.0432-0.07191 0.0177-0.06859-0.0797 0.01037-0.0788 0.06391-0.14324 0.18893-0.14324 0.27782 0 0.08889-0.0545 0.18253-0.12109 0.20809-0.13562 0.05204-0.30225 0.46759-0.30225 0.75377 0 0.10319-0.0787 0.28763-0.17483 0.40988-0.0962 0.12225-0.14742 0.26662-0.11392 0.32083 0.0379 0.06136 0.024 0.07576-0.0368 0.03816-0.0828-0.05119-0.14655 0.14084-0.0766 0.2308 0.0116 0.01497-0.0455 0.09389-0.127 0.17538-0.0815 0.08149-0.15119 0.25022-0.15486 0.37495-4e-3 0.12473-0.0264 0.17759-0.0506 0.11746-0.0729-0.18158-0.62009 0.50404-0.62009 0.77691 0 0.06575-0.11056 0.32973-0.24569 0.58662s-0.27051 0.58003-0.30083 0.71809c-0.0303 0.13806-0.1674 0.46743-0.30463 0.73192-0.13724 0.2645-0.24951 0.56921-0.24951 0.67714 0 0.10793-0.0526 0.23986-0.1168 0.29317-0.0642 0.05331-0.13949 0.21038-0.16722 0.34903-0.0277 0.13866-0.0999 0.2521-0.16029 0.2521-0.0604 0-0.17739 0.12382-0.25993 0.27517-0.23404 0.42913-0.71077 0.9015-0.96749 0.95865-0.12831 0.02856-0.29994 0.07-0.38144 0.0921-0.0815 0.02209-0.14817-0.0049-0.14817-0.06008zm6.7733-11.595c0-0.04657-0.0381-0.08467-0.0847-0.08467s-0.0847 0.0381-0.0847 0.08467 0.0381 0.08467 0.0847 0.08467 0.0847-0.0381 0.0847-0.08467zm21.886 4.9934c-1.16-0.06741-1.671-0.35185-2.0384-1.1345-0.20177-0.42995-0.18747-0.5626 0.0906-0.84069 0.10057-0.10057 0.10868-0.17774 0.0382-0.36319-0.061-0.16056-0.0622-0.2904-4e-3 -0.40807 0.0472-0.09492 0.097-0.26749 0.11055-0.38349 0.0215-0.18325 0.0794-0.2187 0.44227-0.27035 0.35422-0.05042 0.48913-0.02493 0.889 0.16796 0.42043 0.2028 0.57089 0.2278 1.3909 0.23109 0.50573 2e-3 1.2487-0.04526 1.651-0.10509 1.2223-0.18177 1.3094-0.19369 1.7475-0.23932 0.23283-0.02425 0.50358-0.06136 0.60167-0.08246 0.15843-0.03409 0.95057-0.11465 2.531-0.25743 0.2794-0.02524 0.75565-0.08038 1.0583-0.12252 0.30269-0.04215 0.85514-0.10385 1.2277-0.13712 0.37253-0.03327 0.75353-0.07154 0.84667-0.08503 0.0931-0.01349 0.49318-0.06409 0.889-0.11243 0.39581-0.04834 0.80539-0.10786 0.91017-0.13225 0.10477-0.0244 0.19049-0.0055 0.19049 0.04192 0 0.04745 0.0762 0.08628 0.16934 0.08628 0.0931 0 0.15981 0.04548 0.14816 0.10106-0.0116 0.05558 0.055 0.10239 0.14818 0.10402 0.28956 0.0051 0.97365-0.12778 0.97372-0.1891 3e-5 -0.03207 0.17761-0.06977 0.39462-0.08378 0.21699-0.01401 0.46211-0.06163 0.54469-0.10583 0.24006-0.12848 0.37114-0.1042 0.24673 0.04571-0.0575 0.06934-0.1358 0.1068-0.1739 0.08325s-0.12498 0.03669-0.19304 0.13387c-0.0681 0.09718-0.13734 0.1376-0.15397 0.08983-0.0196-0.05646-0.14365-0.06113-0.3544-0.01334-0.39774 0.09019-0.38985 0.08205-0.33852 0.34921 0.0406 0.21152 0.0608 0.21811 0.62753 0.20481 0.55417-0.013 0.78484 0.0907 0.41619 0.1871-0.0931 0.02436-0.16932 0.08051-0.16932 0.12478s-0.0762 0.05631-0.16934 0.02675c-0.13932-0.04422-0.16934-0.01521-0.16934 0.16363 0 0.17676 0.0405 0.21737 0.21667 0.21737 0.12288 0 0.19401 0.03665 0.16434 0.08467-0.0288 0.04657-0.13072 0.08467-0.22654 0.08467-0.13252 0-0.16362 0.04052-0.12994 0.16933 0.0247 0.09452 1e-3 0.17466-0.0536 0.18139-0.0539 0.0066-0.21775 0.02221-0.36423 0.03462-0.14646 0.01241-0.34398 0.06413-0.43893 0.11494-0.0949 0.05081-0.24907 0.09238-0.34251 0.09238-0.0935 0-0.18853 0.03014-0.2113 0.06697-0.0228 0.03683 0.0893 0.05172 0.249 0.03307 0.15972-0.01865 0.29041-0.01202 0.29041 0.01472 0 0.15911-0.79042 0.31128-2.7395 0.52742-1.2868 0.1427-1.8436 0.21619-2.2559 0.29773-0.20956 0.04145-0.6096 0.09034-0.88901 0.10865-0.2794 0.01831-0.60325 0.05692-0.71965 0.08581-0.11643 0.02889-0.41703 0.06643-0.66802 0.08343-0.32356 0.02191-0.48041 0.07391-0.53906 0.17871-0.0646 0.11544-0.0977 0.1236-0.15103 0.03726-0.0559-0.09038-0.0938-0.08937-0.20824 0.0056-0.11383 0.09447-0.15254 0.09564-0.20778 0.0063-0.0458-0.07408-0.18841-0.09654-0.43804-0.06897-0.67346 0.07436-1.8085 0.33731-1.8717 0.43363-0.0342 0.05211-0.0628 0.0615-0.0635 0.02088-8.5e-4 -0.04063-0.0544-0.02977-0.11937 0.02414-0.065 0.0539-0.15069 0.09216-0.19051 0.08501-0.0398-0.0071-0.11051-0.0038-0.15709 0.0075-0.17332 0.0419-1.7192 0.04041-2.4553-0.0024zm12.882-1.7496c-0.0844-0.08438-0.39356-0.09528-0.34213-0.01206 0.0239 0.03862 0.12371 0.07023 0.22186 0.07023 0.0981 0 0.15227-0.02618 0.12027-0.05817zm-50.648-0.26457c-0.60909-0.18667-1.1898-0.80054-1.2728-1.3453-0.0898-0.5899 0.0847-2.1134 0.28895-2.5229 0.33805-0.67776 1.1882-1.5517 1.3889-1.4277 0.0431 0.02662 0.16462-0.03271 0.27013-0.13183 0.17664-0.16594 0.21069-0.17044 0.4298-0.05676 0.31744 0.16469 0.3769 0.27986 0.29391 0.56925-0.054 0.18816-0.0418 0.24266 0.0541 0.24266 0.0872 0 0.11821 0.08208 0.10499 0.27838-0.0103 0.15311 9e-3 0.3226 0.042 0.37666 0.0334 0.05406 0.0167 0.27315-0.0371 0.48687-0.0538 0.21372-0.0789 0.40757-0.0557 0.43078 0.0692 0.06917 0.93179-0.29975 1.2284-0.52534 0.20562-0.1564 0.27517-0.27523 0.27517-0.47016 0-0.72822 1.0499-1.4134 1.5666-1.0224 0.20749 0.15701 0.54033 0.77912 0.63354 1.1841 0.088 0.3825 0.0835 0.46089-0.0331 0.57755-0.14076 0.14076-0.17123 0.35323-0.0835 0.58193 0.0283 0.07382 0.25129 0.19231 0.49548 0.2633 0.50851 0.14783 0.63833 0.33648 0.63833 0.92765 0 0.20461 0.0367 0.39471 0.0816 0.42244 0.0721 0.04457 0.0236 0.12033-0.30594 0.47793-0.14936 0.16207-0.50972 0.46069-0.72826 0.60348-0.27808 0.18171-0.51642 0.1894-0.65604 0.02117-0.058-0.06985-0.16968-0.127-0.24826-0.127-0.0786 0-0.34506-0.1726-0.59221-0.38356-0.44473-0.37962-0.64924-0.42543-0.89096-0.19959-0.0442 0.04133-0.16806 0.07515-0.27517 0.07515-0.1071 0-0.19473 0.03346-0.19473 0.07434 0 0.07997-0.65859 0.34232-1.4868 0.59224-0.47159 0.14231-0.54699 0.14447-0.93134 0.02668zm-40.584-0.33343c-0.54161-0.41127-0.73616-0.68019-1.0421-1.4405-0.17666-0.43902-0.32121-0.86969-0.32121-0.95705 0-0.08736-0.0965-0.37696-0.21436-0.64355-0.30358-0.68644-0.23525-1.0747 0.28294-1.6079 0.35613-0.36642 0.42278-0.40012 0.79146-0.40012 0.50947 0 0.77288 0.14098 0.94747 0.5071 0.0824 0.17285 0.25764 0.34639 0.43523 0.43107 0.16349 0.07796 0.29726 0.1728 0.29726 0.21074 0 0.03794 0.0503 0.06898 0.1118 0.06898 0.10067 0 0.44705-0.38781 1.3275-1.4863 0.16298-0.20334 0.51663-0.63411 0.78587-0.95726 0.54903-0.65895 1.2461-1.6875 1.2461-1.8387 0-0.05457-0.11734-0.12269-0.26077-0.15137-0.14342-0.02868-0.38154-0.10791-0.52916-0.17605-0.2423-0.11185-1.6616-0.37678-2.3004-0.42941-0.1397-0.01151-0.2921-0.02964-0.33867-0.04028-0.0466-0.01064-0.16725-0.01282-0.26818-0.0048-0.10094 8e-3 -0.32953-0.02457-0.508-0.07235-0.71674-0.19187-1.2972-0.24537-3.4148-0.31471-2.3903-0.07827-5.0277-0.09195-5.1223-0.02656-0.0466 0.03219-0.65617 0.07744-1.3547 0.10057-1.0977 0.03634-2.1233 0.18349-2.667 0.38263-0.0699 0.02558-0.22225 0.05584-0.33867 0.06722-0.45277 0.04429-1.3608 0.2126-1.5642 0.28994-0.11759 0.04471-0.21381 0.06584-0.21381 0.04696s-0.11315-0.0019-0.25145 0.03779c-0.34592 0.09921-0.7299-0.01458-0.69538-0.20608 0.0159-0.0884-0.01-0.12618-0.0635-0.09303-0.0497 0.0307-0.0903 0.01548-0.0903-0.03384 0-0.04931-0.0974-0.08966-0.21646-0.08966h-0.21645l0.15011-0.25411c0.0826-0.13976 0.22015-0.27634 0.30578-0.30352 0.0856-0.02717 0.14104-0.0933 0.12316-0.14694-0.0179-0.05364 0.11337-0.16285 0.29167-0.24268 0.1783-0.07983 0.32419-0.1851 0.32419-0.23395 0-0.1308-0.3099-0.10803-0.60474 0.04444-0.31316 0.16194-0.40957 0.10994-0.13262-0.07153 0.27133-0.17778 1.4099-0.45792 2.5154-0.61887 0.50799-0.07396 0.66022-0.10333 0.85343-0.16466 0.0894-0.02838 0.16257-0.01858 0.16257 0.02177 0 0.09798-0.45438 0.248-0.96368 0.31816-0.22735 0.03132-0.49405 0.09283-0.59267 0.1367-0.15452 0.06872-0.14742 0.07348 0.0514 0.0344 0.61175-0.12027 1.251-0.14852 1.251-0.05527 0 0.1582 0.45917 0.1098 0.60807-0.0641 0.10866-0.1269 0.30461-0.17326 0.92898-0.2198 0.43521-0.03243 1.064-0.04579 1.3973-0.02968 0.33331 0.01611 0.59014 0.0038 0.57072-0.02738-0.0194-0.03117 0.22221-0.08418 0.53697-0.11779 0.31475-0.03361 0.70563-0.1102 0.86861-0.17019 0.28078-0.10336 0.25857-0.10887-0.42333-0.10503-0.54202 0.0031-0.65697 0.02177-0.46567 0.07582 0.22225 0.0628 0.21167 0.06695-0.0847 0.03325-0.18627-0.02119-0.43392-0.04371-0.55033-0.05005-0.12372-0.0067-0.0534-0.0397 0.16933-0.07932 0.57762-0.10278 1.5898-0.09461 1.6566 0.01336 0.0399 0.06456 0.075 0.06603 0.11289 0.0047 0.0302-0.04893 0.43505-0.11414 0.89958-0.14492 0.99714-0.06606 0.85304-0.06055 1.2609-0.04822 0.39278 0.01188 0.34752 0.09643-0.0978 0.1828l-0.31843 0.06175 0.28016 0.0097c0.16324 0.0057 0.25833 0.04507 0.22784 0.0944-0.0314 0.05086 0.0765 0.08415 0.27017 0.08337 0.24147-9.71e-4 0.29059-0.02224 0.1955-0.08467-0.11289-0.07411-0.11289-0.09263 0-0.16674 0.0699-0.04585 0.18415-0.08128 0.25399-0.07872 0.0838 0.0031 0.0693 0.02944-0.0423 0.07742-0.1431 0.06149-0.12779 0.07369 0.0988 0.07872 0.14746 0.0033 0.28103-0.03281 0.29681-0.08018 0.0295-0.08855 0.94998-0.20399 1.5517-0.19461 0.83193 0.01297 0.8852 0.02278 0.83495 0.15373-0.0325 0.08462 4e-3 0.12739 0.10849 0.12816 0.0865 6.35e-4 0.25248 0.02047 0.36889 0.04407 0.18082 0.03666 0.18699 0.03174 0.0423-0.03379-0.35507-0.16084 0.27023-0.2014 0.95762-0.06212 0.36737 0.07444 0.76706 0.13534 0.8882 0.13534s0.43967 0.05715 0.70784 0.127c0.63957 0.16659 0.79975 0.16451 0.73297-0.0095-0.0444-0.11572-9e-3 -0.12699 0.23246-0.07396 0.15667 0.03441 0.41957 0.11561 0.58423 0.18045l0.29936 0.11788-0.28197-0.04317c-0.41347-0.0633-0.29998 0.12574 0.15934 0.26539 0.20715 0.06298 0.47188 0.09403 0.5883 0.06898 0.15666-0.0337 0.1793-0.02406 0.0871 0.0371-0.15649 0.10383-0.0815 0.184 0.17848 0.19091 0.11004 0.0029 0.30488 0.04362 0.43298 0.09043 0.16733 0.06115 0.2675 0.0564 0.35577-0.01685 0.0687-0.05697 0.20211-0.07681 0.30247-0.04496 0.19547 0.06204 0.41364-0.14326 0.41849-0.39379 1e-3 -0.07651 0.0538-0.15874 0.11635-0.18272 0.0625-0.02399 0.1827-0.18999 0.26707-0.36889 0.19157-0.40622 0.52393-0.85635 0.81858-1.1087 0.14163-0.12128 0.24682-0.3186 0.28253-0.52997 0.0313-0.18521 0.0861-0.35478 0.12172-0.37681 0.0827-0.05109 0.38271 0.16549 0.39669 0.28635 6e-3 0.05032 0.0153 0.15272 0.0212 0.22755 7e-3 0.08982 0.0578 0.11793 0.14961 0.08271 0.12126-0.04653 0.13262 6.94e-4 0.0889 0.36958-0.0281 0.23767-0.0145 0.44495 0.0312 0.47319 0.0447 0.02764 0.081 0.15253 0.0806 0.27753-3.4e-4 0.125 0.0215 0.38087 0.0485 0.56861 0.0508 0.35196-0.18371 1.2172-0.43295 1.5976-0.10759 0.1642-0.10474 0.1996 0.0251 0.3107 0.0806 0.06897 0.26524 0.17455 0.41035 0.23464 0.1451 0.06009 0.46725 0.29724 0.71586 0.527 0.45856 0.42377 0.64434 0.52093 0.55603 0.29076-0.0283-0.0738-1e-3 -0.127 0.0643-0.127 0.12846 0 0.72833 0.73561 0.72833 0.89316 0 0.05685 0.0929 0.16425 0.20649 0.23866 0.20401 0.13367 0.68402 0.96923 0.60321 1.05-0.023 0.02296 2e-3 0.12246 0.0546 0.22112 0.053 0.09865 0.10622 0.27462 0.11832 0.39103 0.0121 0.11642 0.0455 0.40217 0.0742 0.635 0.0764 0.62014 0.0768 0.71802 4e-3 1.202-0.0746 0.4985-0.14028 0.60072-0.85544 1.3304-0.43811 0.447-0.63795 0.57581-1.3547 0.87329-0.46246 0.19192-1.0313 0.39317-1.2641 0.44722-0.23279 0.05405-0.49946 0.13324-0.59259 0.17598-0.0931 0.04274-0.60749 0.15062-1.143 0.23973-0.95766 0.15936-1.8246 0.17549-2.667 0.04963-0.43135-0.06444-1.5221-0.40049-1.905-0.58692-0.11641-0.05668-0.2877-0.08613-0.38063-0.06545-0.16567 0.03686-0.62862 0.35584-0.51645 0.35584 0.0314 0 8e-3 0.05331-0.0521 0.11846-0.06 0.06515-0.12187 0.10643-0.13739 0.09172-0.0507-0.048-0.32686 0.25371-0.29202 0.31898 0.0673 0.12607-0.36954 0.06004-0.56011-0.08467zm6.4538-3.0366c0.18272-0.06447 0.45853-0.11722 0.61291-0.11722s0.30244-0.03517 0.329-0.07815c0.0266-0.04298 0.17044-0.10498 0.31972-0.13777 0.14928-0.03279 0.32982-0.09015 0.40119-0.12748 0.0714-0.03733 0.31433-0.13726 0.53989-0.22207 0.41898-0.15754 0.94754-0.61651 1.0379-0.90128 0.12163-0.38318-0.0515-0.87065-0.4799-1.3513-0.23237-0.26072-0.50716-0.50045-0.61065-0.53273-0.10348-0.03229-0.2072-0.08731-0.23048-0.12227-0.0775-0.11639-0.93676-0.59094-1.07-0.59094-0.0722 0-0.15113 0.0762-0.17548 0.16933-0.0244 0.09313-0.0779 0.16933-0.11908 0.16933-0.0411 0-0.0748 0.0762-0.0748 0.16933 0 0.09313-0.034 0.16933-0.0755 0.16933s-0.0994 0.09525-0.12861 0.21167c-0.0292 0.11642-0.10542 0.21167-0.16933 0.21167-0.0639 0-0.14012 0.09525-0.16934 0.21167-0.0292 0.11642-0.11179 0.21167-0.18352 0.21167-0.0717 0-0.10702 0.03778-0.0785 0.08396 0.0285 0.04618-0.0378 0.17368-0.14751 0.28334-0.10965 0.10966-0.18581 0.2401-0.16922 0.28986 0.0166 0.04976-0.051 0.11623-0.15022 0.14772-0.0992 0.03149-0.15933 0.0783-0.13359 0.10404 0.0257 0.02573-0.0571 0.16895-0.18412 0.31826-0.32775 0.38533-0.81386 0.98492-0.8776 1.0825-0.0297 0.04548-0.0964 0.05651-0.14817 0.02452-0.0528-0.03266-0.0941-0.0033-0.0941 0.0669 0 0.06879-0.0238 0.18718-0.053 0.26308-0.0473 0.12323 0.0543 0.13652 0.94841 0.12414 0.60107-0.0083 1.1342-0.06072 1.3336-0.13108zm-20.143-7.1113c0.2297-0.08814 0.14663-0.17515-0.12865-0.13474-0.18625 0.02734-0.22932 0.05961-0.14817 0.11104 0.13874 0.08792 0.11482 0.08587 0.27682 0.0237zm4.0903-0.42309c-0.0281-0.02813-0.10116-0.03114-0.16228-0.0067-0.0675 0.02703-0.0475 0.04709 0.0512 0.05115 0.0892 0.0037 0.13926-0.01633 0.11113-0.04447zm6.5193-0.508c-0.0281-0.02813-0.10116-0.03114-0.16227-0.0067-0.0675 0.02703-0.0475 0.04709 0.0512 0.05115 0.0892 0.0037 0.13926-0.01633 0.11112-0.04447zm28.865 10.856c-0.43774-0.53584-0.5151-0.83412-0.4135-1.5944l0.0865-0.64711 1.0459-1.0477c0.90787-0.9095 1.939-1.7392 2.5947-2.088 0.10683-0.05682 0.35518-0.12302 0.55189-0.14711 0.32388-0.03966 0.3875-0.01482 0.67362 0.26305 0.17376 0.16877 0.31594 0.26692 0.31594 0.21811 0-0.04881 0.0422-0.08874 0.0937-0.08874 0.0516 0 0.0734 0.05297 0.0486 0.11771-0.0249 0.06474 0.0219 0.18966 0.10378 0.2776 0.0819 0.08794 0.21765 0.33976 0.30163 0.55962 0.14876 0.38952 0.26638 0.47814 0.43021 0.32412 0.1612-0.15153 1.1087-0.61713 1.5806-0.77668 0.73742-0.24933 0.93197-0.2211 1.363 0.19787 0.43057 0.41846 0.61311 0.73673 0.69267 1.2077 0.0846 0.50043 0.22309 0.90947 0.35158 1.0379 0.19692 0.19692 0.17253 1.0992-0.0338 1.25-0.0721 0.05276-0.14244 0.20151-0.15621 0.33057-0.0226 0.21192-0.33304 0.53638-0.47084 0.49209-0.0305-0.0098-0.1018 0.03813-0.15853 0.10649-0.11651 0.14039-0.38553 0.16566-0.46114 0.04332-0.0275-0.04453-0.10597-0.05951-0.17433-0.03328-0.0775 0.02974-0.12429-0.0035-0.12429-0.08836 0-0.07483-0.0286-0.13001-0.0635-0.12262-0.14339 0.03035-0.35983-0.12577-0.35983-0.25957 0-0.07884-0.0343-0.17954-0.0762-0.22378-0.0419-0.04424-0.0934-0.2621-0.11442-0.48413-0.021-0.22203-0.0633-0.42883-0.094-0.45956-0.0642-0.06422-0.68921 0.26168-0.94842 0.49455-0.0961 0.08637-0.20363 0.15703-0.23888 0.15703-0.0353 0-0.11338 0.04762-0.17361 0.10583-0.0602 0.05821-0.30516 0.28941-0.54428 0.51378-0.23913 0.22437-0.43478 0.44584-0.43478 0.49216 0 0.04631-0.0667 0.07595-0.14815 0.06587-0.0815-0.01008-0.21498 0.0107-0.29665 0.04619-0.0924 0.04018-0.29178-0.0028-0.52825-0.11399-0.20886-0.09818-0.41115-0.17851-0.44952-0.17851-0.13198 0-0.50187-0.46612-0.59791-0.75347-0.0529-0.15829-0.0962-0.43769-0.0962-0.62089 0-0.1832-0.0339-0.32039-0.0754-0.30486-0.13617 0.05096-0.84587 0.74023-0.93645 0.90951-0.0487 0.09107-0.15534 0.18698-0.23689 0.21315-0.0815 0.02617-0.21872 0.15257-0.30486 0.2809-0.22502 0.33525-0.54089 0.54834-0.91392 0.61656-0.30657 0.05606-0.341 0.03974-0.60948-0.28891zm41.639-0.16498c-0.99368-0.25342-1.818-1.1301-1.9425-2.066-0.0707-0.53106 0.13747-1.9484 0.39399-2.683 0.31187-0.89314 1.0375-2.0125 1.7578-2.7117 0.18964-0.18408 0.34479-0.37158 0.34479-0.41667 0-0.04509 0.0588-0.1469 0.13057-0.22625 0.12046-0.1331 0.0893-0.1641-0.40218-0.40049-0.293-0.14092-0.69465-0.29954-0.89256-0.3525-0.19791-0.05295-0.35983-0.12338-0.35983-0.15651s-0.0857-0.06459-0.19049-0.06992c-0.2723-0.01384-2.6375-0.63727-2.6882-0.70858-0.0233-0.03274-0.20946-0.06543-0.41371-0.07264-0.20425-0.0072-0.51946-0.05299-0.70044-0.10173-0.18101-0.04874-0.36631-0.06561-0.4118-0.03749-0.0455 0.02812-0.0827 0.01733-0.0827-0.02397s-0.16206-0.07727-0.36015-0.07993c-0.19808-0.0027-0.51242-0.04711-0.6985-0.09877-0.18609-0.05166-0.53075-0.09414-0.76592-0.0944-0.23515-2.62e-4 -0.46375-0.03568-0.50799-0.07872-0.0442-0.04304-0.30845-0.10238-0.58715-0.13186-0.27869-0.02949-0.56752-0.10866-0.64187-0.17594-0.0743-0.06728-0.16266-0.09482-0.19629-0.0612-0.12005 0.12005-0.74535 0.10706-0.92566-0.01923-0.20348-0.14252-0.48114-0.16801-0.48114-0.04417 0 0.04511-0.0603 0.05885-0.13409 0.03055-0.0992-0.03808-0.10722-0.06808-0.0307-0.11538 0.0578-0.03573-0.0838-0.07722-0.32089-0.09405-0.33901-0.02407-0.41508-0.0061-0.37828 0.0896 0.0293 0.07628 0.0101 0.09751-0.053 0.0585-0.0556-0.03436-0.0991-0.01445-0.0991 0.04538 0 0.08291-0.0226 0.08402-0.1016 5e-3 -0.0559-0.05588-0.27496-0.10218-0.48684-0.1029-0.2935-9.88e-4 -0.35499-0.02247-0.25823-0.09021 0.0968-0.06775 0.0766-0.0748-0.0847-0.02963-0.11641 0.03261-0.23071 0.08273-0.254 0.11138-0.0788 0.09697-0.63426 0.05962-0.74675-0.05021-0.19662-0.19198-0.53882-0.23374-0.65159-0.07952-0.12551 0.17165-0.30708 0.18484-0.24292 0.01765 0.033-0.08606-0.037-0.13755-0.23857-0.17536-0.15693-0.02944-0.32204-0.04272-0.36691-0.02951-0.0449 0.01321-0.15779-0.01812-0.25092-0.06962-0.12795-0.07075-0.19396-0.06701-0.27008 0.01532-0.0554 0.05993-0.0776 0.13207-0.0494 0.16032 0.0282 0.02825 9e-3 0.05136-0.0424 0.05136-0.0516 0-0.11575-0.03553-0.14259-0.07896-0.0268-0.04343-0.16996-0.07552-0.31804-0.07131-0.14808 0.0042-0.28395-0.03646-0.30192-0.09037-0.0479-0.14362-0.27256-0.11974-0.27256 0.02897 0 0.16834-0.0823 0.16055-0.2235-0.02117-0.10162-0.13073-0.12762-0.13322-0.221-0.02117-0.13785 0.16541-1.8676 0.18984-1.8045 0.02548 0.0454-0.11828-0.18031-0.0557-0.37571 0.10415-0.0699 0.05714-0.26035 0.09655-0.42333 0.08758-0.16299-9e-3 -0.51269-0.02341-0.77712-0.03209-0.51348-0.01685-0.87511-0.22102-0.64731-0.36545 0.0723-0.04584 7e-3 -0.06962-0.18424-0.067-0.26799 0.0037-0.27759 0.01159-0.10039 0.08266 0.12891 0.0517 0.1728 0.11503 0.12829 0.18513-0.0372 0.0586-0.0682 0.14465-0.0689 0.19122-6.7e-4 0.04657-0.12512 0.08467-0.27646 0.08467-0.27814 0-0.36383-0.07813-0.16933-0.15438 0.0582-0.02282-0.0847-0.03991-0.3175-0.03797-0.6396 0.0053-1.0564-0.03459-0.8255-0.07907 0.10477-0.02018 0.1905-0.07214 0.1905-0.11547s-0.0857-0.08418-0.1905-0.09079c-0.10478-0.0066-0.0381-0.0393 0.14816-0.07265 0.25544-0.04574 0.28268-0.06359 0.11083-0.07265-0.12531-0.0066-0.24544-0.04059-0.26697-0.07551-0.0215-0.03493 0.25062-0.06752 0.60476-0.07244 0.40086-0.0056 0.65609-0.04551 0.6762-0.10583 0.0405-0.12142 0.32811-0.12723 0.40173-0.0081 0.037 0.05984 0.0883 0.061 0.15756 0.0035 0.0565-0.04688 0.18665-0.06328 0.28925-0.03645s0.24349 0.0015 0.3131-0.05624c0.0751-0.06234 0.12654-0.06962 0.12654-0.01792 0 0.04791 0.0762 0.06718 0.16934 0.04282 0.0931-0.02435 0.16933-0.07437 0.16933-0.11115 0-0.03678 0.0723-0.04796 0.16068-0.02485 0.0884 0.02311 0.24077-8.48e-4 0.33867-0.05324 0.0979-0.05239 0.17798-0.06116 0.17798-0.01948 0 0.08599 1.3848 0.05857 1.5285-0.03027 0.0515-0.03183 0.34778-0.05009 0.6584-0.04058 0.31062 0.0095 0.64096 0.01488 0.73409 0.01193 1.2005-0.03795 2.5757-0.025 2.6566 0.02501 0.0564 0.03484 0.14843 0.02927 0.2046-0.01236 0.0562-0.04163 0.19738-0.06738 0.31379-0.05721 0.11642 0.01017 0.55176 0.02729 0.96742 0.03805 0.69419 0.01797 0.76833 4e-3 0.91017-0.17113 0.0976-0.12051 0.15441-0.14718 0.15441-0.07246 0 0.06503 0.0667 0.12248 0.14817 0.12767 0.0815 0.0052 0.31962 0.03058 0.52917 0.05643s0.62865 0.07019 0.93133 0.09853 0.65511 0.07129 0.78317 0.09544c0.16832 0.03174 0.23283 0.0094 0.23283-0.08056 0-0.14613-0.57327-0.24292-0.61989-0.10467-0.0203 0.06007-0.0685 0.05781-0.14951-7e-3 -0.0658-0.05262-0.4222-0.12323-0.79204-0.15692-0.36984-0.03368-0.75084-0.09445-0.84667-0.13504-0.24291-0.10289 1.8803-0.0033 2.6286 0.12335 0.72928 0.12339 1.3342 0.08556 1.2709-0.07946-0.0694-0.1808 0.24644-0.22563 0.58703-0.08332 0.17209 0.0719 0.42478 0.13073 0.56154 0.13073 0.13677 0 0.22663 0.03565 0.1997 0.07923-0.0303 0.04902 0.054 0.04968 0.22124 0.0017 0.17338-0.04972 0.30719-0.04681 0.37339 0.0081 0.0567 0.04709 0.2382 0.10292 0.40323 0.12404l0.30006 0.03842-0.05-0.30833c-0.0496-0.30543-0.0485-0.30674 0.11135-0.13951 0.0888 0.09285 0.20424 0.24168 0.25661 0.33072 0.0761 0.12944 0.19073 0.16148 0.5715 0.15977 0.26196-0.0012 0.47628 0.03148 0.47628 0.07256s0.062 0.0509 0.13776 0.02183c0.082-0.03146 0.18373 0.0077 0.25131 0.09678 0.0688 0.09068 0.11461 0.10794 0.11624 0.0438 3e-3 -0.12809 0.25669-0.14373 0.25669-0.01584 0 0.04949 0.0667 0.07902 0.14817 0.06561 0.0815-0.01341 0.19813 0.0069 0.25919 0.04521 0.0611 0.03827 0.23251 0.0887 0.381 0.11207 0.14849 0.02336 0.29471 0.08237 0.32493 0.13113 0.0302 0.04876 0.11184 0.06683 0.18135 0.04015 0.0695-0.02668 0.46046 0.06302 0.86874 0.19933 0.40829 0.13631 0.77813 0.24783 0.82186 0.24783 0.0437 0 0.19956 0.05549 0.3463 0.12332 0.14674 0.06783 0.47635 0.2009 0.73246 0.29571 0.68879 0.25499 1.3788 0.7002 1.5236 0.983 0.0701 0.13693 0.16742 0.27517 0.21632 0.3072 0.0489 0.03202 0.17922 0.2511 0.28963 0.48683 0.11042 0.23574 0.23234 0.42861 0.27094 0.42861 0.0852 0 0.0937 0.28692 0.011 0.36964-0.0326 0.03256-0.049 0.22569-0.0365 0.42917 0.0232 0.37651-0.0954 0.68544-0.33226 0.86551-0.0724 0.05503-0.23814 0.26862-0.36836 0.47465-0.13024 0.20603-0.35678 0.44531-0.50342 0.53174-0.14665 0.08643-0.34051 0.22572-0.43078 0.30955-0.0903 0.08382-0.19729 0.15241-0.23783 0.15241-0.0405 0-0.0465 0.04399-0.0133 0.09775 0.0352 0.05693 0.0234 0.0749-0.0281 0.04303-0.0799-0.04936-0.29586 0.15892-0.84326 0.81314-0.23446 0.28022-0.4596 0.71157-0.44225 0.8473 0.0273 0.2138-9e-3 0.32377-0.0915 0.27311-0.0466-0.02878-0.0847 0.02612-0.0847 0.122 0 0.47391 1.2512-0.1055 1.2691-0.58767 5e-3 -0.13578 0.33455-0.6007 0.33771-0.47647 1e-3 0.04063 0.0585 0.02684 0.12781-0.03064 0.1781-0.14781 0.3505-0.05502 0.41825 0.2251 0.0952 0.39346 0.25276 0.70534 0.35643 0.70534 0.0535 0 0.12014 0.05956 0.14807 0.13237 0.0279 0.0728 0.0844 0.11159 0.12549 0.08621 0.0411-0.02539 0.056 0.11963 0.0332 0.32227-0.0252 0.22319-4e-3 0.39144 0.0529 0.42679 0.20347 0.12575 0.0912 0.54218-0.28344 1.0511-0.46835 0.63621-0.93569 1.0877-1.289 1.2454-0.38975 0.17392-1.347 0.22268-1.8506 0.09426zm-22.157-11.46c-0.081-0.02119-0.23335-0.02196-0.33868-0.0017-0.10531 0.02025-0.0391 0.03759 0.14718 0.03853 0.18627 9.4e-4 0.27244-0.01563 0.19149-0.03682zm1.396-0.08257c-0.0582-0.02349-0.15344-0.02349-0.21165 0-0.0582 0.02349-0.0106 0.0427 0.10582 0.0427 0.11643 0 0.16404-0.01922 0.10583-0.0427zm0.37925 0.0049c-0.0281-0.02813-0.10116-0.03114-0.16229-0.0067-0.0675 0.02703-0.0475 0.04709 0.0512 0.05115 0.0892 0.0037 0.13925-0.01633 0.11112-0.04447zm0.6156-0.03351c0.0932-0.0602 0.0367-0.08083-0.21167-0.07742-0.26608 0.0037-0.30237 0.02025-0.16933 0.07742 0.22278 0.09573 0.23285 0.09573 0.381 0zm14.986-0.08467c-0.28949-0.09271-0.51209-0.09271-0.29634 0 0.0931 0.04002 0.24554 0.07165 0.33867 0.07028 0.13612-2e-3 0.12782-0.01578-0.0423-0.07028zm-16.956-0.05115c-0.0281-0.02813-0.10116-0.03114-0.16227-0.0067-0.0676 0.02703-0.0475 0.04709 0.0512 0.05115 0.0892 0.0037 0.13927-0.01633 0.11112-0.04447zm0.93134-0.08467c-0.0281-0.02813-0.10116-0.03114-0.16228-0.0067-0.0675 0.02703-0.0475 0.04709 0.0512 0.05115 0.0892 0.0037 0.13927-0.01633 0.11114-0.04447zm12.554-0.36718c0-0.04382-0.0381-0.10322-0.0847-0.132-0.0466-0.02878-0.0847 0.0071-0.0847 0.07967 0 0.0726 0.0381 0.132 0.0847 0.132s0.0847-0.03585 0.0847-0.07967zm3.2103-0.03517c-0.0938-0.08022-0.5892-0.12882-0.54248-0.05322 0.0284 0.04586 0.16994 0.08339 0.31466 0.08339 0.14471 0 0.24723-0.01358 0.22782-0.03017zm-46.462 11.958c-0.55822-0.06813-0.72549-0.14807-1.1604-0.55455-0.63611-0.59457-0.85932-1.4824-0.72505-2.8839 0.0162-0.16965 0.81873-0.93144 1.3169-1.2501 0.49885-0.31911 1.0435-0.53542 1.9203-0.76266 0.6994-0.18127 1.9162-0.11236 3.0526 0.17288 0.26939 0.06761 0.57826 0.3371 0.57826 0.50453 0 0.08459 0.0771 0.10992 0.2631 0.08638 0.1447-0.01831 0.27931-0.04952 0.29915-0.06936 0.0852-0.08517 0.62308 0.5659 0.62308 0.75416 0 0.11724 0.0499 0.2032 0.11795 0.2032 0.13588 0 0.22072 0.1801 0.22072 0.46861 0 0.11042 0.0442 0.29769 0.0981 0.41616 0.0737 0.1618 0.0742 0.29522 2e-3 0.53615-0.0528 0.17641-0.11501 0.6429-0.13813 1.0366-0.0231 0.39374-0.0812 0.72894-0.12905 0.74489-0.0478 0.01595-0.087 0.08298-0.087 0.14895s-0.052 0.11994-0.11558 0.11994c-0.0636 0-0.21869 0.0811-0.3447 0.18023-0.17017 0.13385-0.25372 0.15564-0.32468 0.08467-0.0526-0.05256-0.19358-0.09556-0.31338-0.09556-0.19626 0-0.60337-0.36458-0.84663-0.75819-0.0757-0.1225-0.33308-0.01326-0.63203 0.26825-0.18412 0.1734-0.62555 0.38296-0.92677 0.43998-0.0986 0.01866-0.35067 0.07347-0.56023 0.1218-0.53655 0.12375-1.5551 0.16417-2.1886 0.08685zm2.396-2.879c0.14302-0.1311-0.24158-0.07463-0.41911 0.06154-0.16113 0.12361-0.15704 0.12704 0.0847 0.07104 0.1397-0.03236 0.29021-0.09203 0.33443-0.13258zm74.212 1.3703c0.0485-0.09054 0.12994-0.19048 0.18109-0.22209 0.0512-0.03161 0.0275 0.04247-0.0525 0.16462-0.16946 0.25864-0.25723 0.29787-0.12856 0.05747zm-0.61524-0.01349c0.067-0.06697 0.13772-0.0677 0.24977-0.0026 0.13704 0.07966 0.12551 0.09118-0.0934 0.09344-0.18214 0.0019-0.22447-0.02272-0.15632-0.09087zm1.8878 0.0088c0.0699-0.04514 0.2032-0.07998 0.29633-0.07742l0.16934 0.0047-0.16934 0.07277c-0.0931 0.04002-0.22648 0.07486-0.29633 0.07742-0.11289 0.0041-0.11289-0.0045 0-0.07742zm-89.7-8.3048c0.0262-0.04248 0.10899-0.07723 0.18385-0.07723 0.16044 0 0.0747 0.10952-0.10663 0.13613-0.0687 0.01009-0.10347-0.01642-0.0772-0.05889zm-13.276-0.38731c0.0582-0.02349 0.15346-0.02349 0.21166 0s0.0106 0.0427-0.10583 0.0427c-0.11642 0-0.16404-0.01922-0.10583-0.0427zm-2.1731-0.05915c0.0969-0.08393 0.75494-0.13197 0.75494-0.05512 0 0.04712-0.1778 0.08567-0.39511 0.08567s-0.37924-0.01375-0.35983-0.03055zm1.0317-0.02812c0.0824-0.02147 0.19668-0.02005 0.254 0.0031 0.0573 0.02319-0.0101 0.04076-0.14978 0.03903-0.1397-0.0017-0.1866-0.0207-0.10422-0.04217zm12.576-0.12759c0.079-0.07902 0.12418-0.07902 0.2032 0 0.079 0.07902 0.0564 0.1016-0.1016 0.1016-0.15804 0-0.18062-0.02258-0.1016-0.1016zm-12.196-0.04282c0.10477-0.02018 0.27622-0.02018 0.381 0 0.10477 0.02018 0.019 0.03669-0.1905 0.03669-0.20955 0-0.29528-0.01651-0.1905-0.03669zm11.155-0.10958-0.254-0.06463 0.22784-0.01002c0.12531-0.0055 0.25138 0.02808 0.28016 0.07465 0.0288 0.04657 0.0406 0.08016 0.0262 0.07465-0.0144-0.0055-0.14046-0.0391-0.28016-0.07465zm54.991-5e-3c0-0.04931 0.0381-0.06612 0.0847-0.03734s0.0847 0.06913 0.0847 0.08966c0 0.02054-0.0381 0.03734-0.0847 0.03734s-0.0847-0.04035-0.0847-0.08966zm-4.9265-0.13751c0.0611-0.02446 0.13414-0.02145 0.16229 0.0067 0.0281 0.02813-0.0219 0.04815-0.11113 0.04447-0.0986-0.0041-0.1187-0.02412-0.0512-0.05115zm-51.737-0.09327c-0.0815-0.01686-0.14816-0.06768-0.14816-0.11294 0-0.06806 0.56906-0.02229 0.65972 0.05306 0.0493 0.04099-0.36719 0.08974-0.51156 0.05988zm-3.004-0.0769c0.0824-0.02147 0.19668-0.02005 0.254 0.0031 0.0573 0.02319-0.0101 0.04076-0.14978 0.03903-0.1397-0.0017-0.1866-0.0207-0.10422-0.04217zm1.2896-0.10373c-0.30071-0.02916-0.46525-0.07694-0.40325-0.11709 0.12634-0.08181 1.6868 0.05311 1.7883 0.15461 0.0493 0.04934-0.6982 0.02909-1.385-0.03752zm-3.3011-0.17764c0.0292-0.04733 0.0887-0.06413 0.13199-0.03734 0.11744 0.07258 0.0955 0.12338-0.0532 0.12338-0.0726 0-0.10806-0.03872-0.0788-0.08605zm1.4189 0.02737c0.0824-0.02147 0.19668-0.02005 0.254 0.0031 0.0573 0.02319-0.0101 0.04076-0.14978 0.03903-0.1397-0.0017-0.1866-0.0207-0.10422-0.04217zm0.84667 0c0.0824-0.02147 0.19668-0.02005 0.254 0.0031 0.0573 0.02319-0.0101 0.04076-0.14978 0.03903-0.1397-0.0017-0.1866-0.0207-0.10422-0.04217zm58.609-1.296c0.0288-0.04657 0.0882-0.08467 0.13199-0.08467 0.0438 0 0.0797 0.0381 0.0797 0.08467s-0.0594 0.08467-0.13199 0.08467c-0.0726 0-0.10845-0.0381-0.0797-0.08467zm-3.2755-0.48117c0.0611-0.02446 0.13414-0.02145 0.16226 0.0067 0.0281 0.02813-0.0219 0.04814-0.11111 0.04447-0.0986-0.0041-0.1187-0.02413-0.0511-0.05115z" fill="#fff" stroke-width=".084667"/>
 </g>
</svg>
